<mxfile host="Electron" modified="2024-05-13T07:50:48.204Z" agent="Mozilla/5.0 (Windows NT 10.0; Win64; x64) AppleWebKit/537.36 (KHTML, like Gecko) draw.io/24.1.0 Chrome/120.0.6099.109 Electron/28.1.0 Safari/537.36" etag="t7ZPARmxROOOzd7diP4N" version="24.1.0" type="device">
  <diagram id="C5RBs43oDa-KdzZeNtuy" name="Page-1">
    <mxGraphModel dx="1976" dy="789" grid="1" gridSize="10" guides="1" tooltips="1" connect="1" arrows="1" fold="1" page="1" pageScale="1" pageWidth="827" pageHeight="1169" math="0" shadow="0">
      <root>
        <mxCell id="WIyWlLk6GJQsqaUBKTNV-0" />
        <mxCell id="WIyWlLk6GJQsqaUBKTNV-1" parent="WIyWlLk6GJQsqaUBKTNV-0" />
        <mxCell id="M_cTl8z5Hkn0wJi17E9b-64" value="" style="edgeStyle=orthogonalEdgeStyle;rounded=0;orthogonalLoop=1;jettySize=auto;html=1;" parent="WIyWlLk6GJQsqaUBKTNV-1" source="M_cTl8z5Hkn0wJi17E9b-16" target="M_cTl8z5Hkn0wJi17E9b-63" edge="1">
          <mxGeometry relative="1" as="geometry" />
        </mxCell>
        <mxCell id="M_cTl8z5Hkn0wJi17E9b-16" value="用户登录" style="rounded=1;whiteSpace=wrap;html=1;" parent="WIyWlLk6GJQsqaUBKTNV-1" vertex="1">
          <mxGeometry x="-90" width="120" height="60" as="geometry" />
        </mxCell>
        <mxCell id="M_cTl8z5Hkn0wJi17E9b-22" value="" style="edgeStyle=orthogonalEdgeStyle;rounded=0;orthogonalLoop=1;jettySize=auto;html=1;" parent="WIyWlLk6GJQsqaUBKTNV-1" source="M_cTl8z5Hkn0wJi17E9b-17" target="M_cTl8z5Hkn0wJi17E9b-21" edge="1">
          <mxGeometry relative="1" as="geometry" />
        </mxCell>
        <mxCell id="M_cTl8z5Hkn0wJi17E9b-33" value="是" style="edgeLabel;html=1;align=center;verticalAlign=middle;resizable=0;points=[];" parent="M_cTl8z5Hkn0wJi17E9b-22" vertex="1" connectable="0">
          <mxGeometry x="-0.6214" y="1" relative="1" as="geometry">
            <mxPoint as="offset" />
          </mxGeometry>
        </mxCell>
        <mxCell id="9MFl-5R6tCMCHo1rS8Rg-2" value="" style="edgeStyle=orthogonalEdgeStyle;rounded=0;orthogonalLoop=1;jettySize=auto;html=1;" parent="WIyWlLk6GJQsqaUBKTNV-1" source="M_cTl8z5Hkn0wJi17E9b-17" target="9MFl-5R6tCMCHo1rS8Rg-1" edge="1">
          <mxGeometry relative="1" as="geometry" />
        </mxCell>
        <mxCell id="e25bp2IBoA8TUv7zlwuq-0" value="否" style="edgeLabel;html=1;align=center;verticalAlign=middle;resizable=0;points=[];" parent="9MFl-5R6tCMCHo1rS8Rg-2" vertex="1" connectable="0">
          <mxGeometry x="0.0464" relative="1" as="geometry">
            <mxPoint as="offset" />
          </mxGeometry>
        </mxCell>
        <mxCell id="M_cTl8z5Hkn0wJi17E9b-17" value="是否为手机验证码登录?" style="rhombus;whiteSpace=wrap;html=1;rounded=0;" parent="WIyWlLk6GJQsqaUBKTNV-1" vertex="1">
          <mxGeometry x="-70" y="270" width="80" height="80" as="geometry" />
        </mxCell>
        <mxCell id="M_cTl8z5Hkn0wJi17E9b-26" value="" style="edgeStyle=orthogonalEdgeStyle;rounded=0;orthogonalLoop=1;jettySize=auto;html=1;" parent="WIyWlLk6GJQsqaUBKTNV-1" source="M_cTl8z5Hkn0wJi17E9b-21" target="M_cTl8z5Hkn0wJi17E9b-25" edge="1">
          <mxGeometry relative="1" as="geometry" />
        </mxCell>
        <mxCell id="M_cTl8z5Hkn0wJi17E9b-34" value="是" style="edgeLabel;html=1;align=center;verticalAlign=middle;resizable=0;points=[];" parent="M_cTl8z5Hkn0wJi17E9b-26" vertex="1" connectable="0">
          <mxGeometry x="0.0286" y="-4" relative="1" as="geometry">
            <mxPoint as="offset" />
          </mxGeometry>
        </mxCell>
        <mxCell id="M_cTl8z5Hkn0wJi17E9b-49" value="" style="edgeStyle=orthogonalEdgeStyle;rounded=0;orthogonalLoop=1;jettySize=auto;html=1;" parent="WIyWlLk6GJQsqaUBKTNV-1" source="M_cTl8z5Hkn0wJi17E9b-21" target="M_cTl8z5Hkn0wJi17E9b-48" edge="1">
          <mxGeometry relative="1" as="geometry" />
        </mxCell>
        <mxCell id="M_cTl8z5Hkn0wJi17E9b-59" value="否" style="edgeLabel;html=1;align=center;verticalAlign=middle;resizable=0;points=[];" parent="M_cTl8z5Hkn0wJi17E9b-49" vertex="1" connectable="0">
          <mxGeometry x="-0.1286" y="-1" relative="1" as="geometry">
            <mxPoint as="offset" />
          </mxGeometry>
        </mxCell>
        <mxCell id="M_cTl8z5Hkn0wJi17E9b-21" value="手机验证码是否正确?" style="rhombus;whiteSpace=wrap;html=1;rounded=0;fillColor=#fff2cc;strokeColor=#d6b656;" parent="WIyWlLk6GJQsqaUBKTNV-1" vertex="1">
          <mxGeometry x="-70" y="430" width="80" height="80" as="geometry" />
        </mxCell>
        <mxCell id="M_cTl8z5Hkn0wJi17E9b-28" value="" style="edgeStyle=orthogonalEdgeStyle;rounded=0;orthogonalLoop=1;jettySize=auto;html=1;" parent="WIyWlLk6GJQsqaUBKTNV-1" source="M_cTl8z5Hkn0wJi17E9b-25" target="M_cTl8z5Hkn0wJi17E9b-27" edge="1">
          <mxGeometry relative="1" as="geometry" />
        </mxCell>
        <mxCell id="M_cTl8z5Hkn0wJi17E9b-35" value="是" style="edgeLabel;html=1;align=center;verticalAlign=middle;resizable=0;points=[];" parent="M_cTl8z5Hkn0wJi17E9b-28" vertex="1" connectable="0">
          <mxGeometry x="-0.1302" y="2" relative="1" as="geometry">
            <mxPoint as="offset" />
          </mxGeometry>
        </mxCell>
        <mxCell id="M_cTl8z5Hkn0wJi17E9b-212" style="edgeStyle=orthogonalEdgeStyle;rounded=0;orthogonalLoop=1;jettySize=auto;html=1;exitX=0;exitY=0.5;exitDx=0;exitDy=0;entryX=1;entryY=0.5;entryDx=0;entryDy=0;" parent="WIyWlLk6GJQsqaUBKTNV-1" source="M_cTl8z5Hkn0wJi17E9b-25" target="M_cTl8z5Hkn0wJi17E9b-210" edge="1">
          <mxGeometry relative="1" as="geometry" />
        </mxCell>
        <mxCell id="M_cTl8z5Hkn0wJi17E9b-213" value="否" style="edgeLabel;html=1;align=center;verticalAlign=middle;resizable=0;points=[];" parent="M_cTl8z5Hkn0wJi17E9b-212" vertex="1" connectable="0">
          <mxGeometry x="0.0095" y="2" relative="1" as="geometry">
            <mxPoint as="offset" />
          </mxGeometry>
        </mxCell>
        <mxCell id="M_cTl8z5Hkn0wJi17E9b-25" value="该用户是否存在?" style="rhombus;whiteSpace=wrap;html=1;rounded=0;" parent="WIyWlLk6GJQsqaUBKTNV-1" vertex="1">
          <mxGeometry x="-70" y="590" width="80" height="80" as="geometry" />
        </mxCell>
        <mxCell id="M_cTl8z5Hkn0wJi17E9b-30" value="" style="edgeStyle=orthogonalEdgeStyle;rounded=0;orthogonalLoop=1;jettySize=auto;html=1;" parent="WIyWlLk6GJQsqaUBKTNV-1" source="M_cTl8z5Hkn0wJi17E9b-27" target="M_cTl8z5Hkn0wJi17E9b-29" edge="1">
          <mxGeometry relative="1" as="geometry" />
        </mxCell>
        <mxCell id="M_cTl8z5Hkn0wJi17E9b-27" value="用户登录" style="whiteSpace=wrap;html=1;rounded=0;" parent="WIyWlLk6GJQsqaUBKTNV-1" vertex="1">
          <mxGeometry x="-90" y="760" width="120" height="60" as="geometry" />
        </mxCell>
        <mxCell id="M_cTl8z5Hkn0wJi17E9b-32" value="" style="edgeStyle=orthogonalEdgeStyle;rounded=0;orthogonalLoop=1;jettySize=auto;html=1;" parent="WIyWlLk6GJQsqaUBKTNV-1" source="M_cTl8z5Hkn0wJi17E9b-29" target="M_cTl8z5Hkn0wJi17E9b-31" edge="1">
          <mxGeometry relative="1" as="geometry" />
        </mxCell>
        <mxCell id="M_cTl8z5Hkn0wJi17E9b-29" value="写入Login日志" style="whiteSpace=wrap;html=1;rounded=0;" parent="WIyWlLk6GJQsqaUBKTNV-1" vertex="1">
          <mxGeometry x="-90" y="859" width="120" height="60" as="geometry" />
        </mxCell>
        <mxCell id="M_cTl8z5Hkn0wJi17E9b-143" value="" style="edgeStyle=orthogonalEdgeStyle;rounded=0;orthogonalLoop=1;jettySize=auto;html=1;" parent="WIyWlLk6GJQsqaUBKTNV-1" source="M_cTl8z5Hkn0wJi17E9b-31" target="M_cTl8z5Hkn0wJi17E9b-142" edge="1">
          <mxGeometry relative="1" as="geometry" />
        </mxCell>
        <mxCell id="M_cTl8z5Hkn0wJi17E9b-31" value="用户登录成功" style="whiteSpace=wrap;html=1;rounded=1;fillColor=#d5e8d4;strokeColor=#82b366;" parent="WIyWlLk6GJQsqaUBKTNV-1" vertex="1">
          <mxGeometry x="-90" y="969" width="120" height="60" as="geometry" />
        </mxCell>
        <mxCell id="M_cTl8z5Hkn0wJi17E9b-45" value="" style="edgeStyle=orthogonalEdgeStyle;rounded=0;orthogonalLoop=1;jettySize=auto;html=1;" parent="WIyWlLk6GJQsqaUBKTNV-1" source="M_cTl8z5Hkn0wJi17E9b-37" target="M_cTl8z5Hkn0wJi17E9b-44" edge="1">
          <mxGeometry relative="1" as="geometry" />
        </mxCell>
        <mxCell id="M_cTl8z5Hkn0wJi17E9b-46" value="否" style="edgeLabel;html=1;align=center;verticalAlign=middle;resizable=0;points=[];" parent="M_cTl8z5Hkn0wJi17E9b-45" vertex="1" connectable="0">
          <mxGeometry x="-0.2667" y="1" relative="1" as="geometry">
            <mxPoint as="offset" />
          </mxGeometry>
        </mxCell>
        <mxCell id="9MFl-5R6tCMCHo1rS8Rg-6" style="edgeStyle=orthogonalEdgeStyle;rounded=0;orthogonalLoop=1;jettySize=auto;html=1;exitX=0.5;exitY=1;exitDx=0;exitDy=0;entryX=0.5;entryY=0;entryDx=0;entryDy=0;" parent="WIyWlLk6GJQsqaUBKTNV-1" source="M_cTl8z5Hkn0wJi17E9b-37" target="M_cTl8z5Hkn0wJi17E9b-39" edge="1">
          <mxGeometry relative="1" as="geometry" />
        </mxCell>
        <mxCell id="9MFl-5R6tCMCHo1rS8Rg-8" value="是" style="edgeLabel;html=1;align=center;verticalAlign=middle;resizable=0;points=[];" parent="9MFl-5R6tCMCHo1rS8Rg-6" vertex="1" connectable="0">
          <mxGeometry x="-0.215" y="3" relative="1" as="geometry">
            <mxPoint as="offset" />
          </mxGeometry>
        </mxCell>
        <mxCell id="M_cTl8z5Hkn0wJi17E9b-37" value="用户名是否存在?" style="rhombus;whiteSpace=wrap;html=1;rounded=0;" parent="WIyWlLk6GJQsqaUBKTNV-1" vertex="1">
          <mxGeometry x="90" y="410" width="80" height="80" as="geometry" />
        </mxCell>
        <mxCell id="M_cTl8z5Hkn0wJi17E9b-41" style="edgeStyle=orthogonalEdgeStyle;rounded=0;orthogonalLoop=1;jettySize=auto;html=1;exitX=0.5;exitY=1;exitDx=0;exitDy=0;entryX=1;entryY=0.5;entryDx=0;entryDy=0;" parent="WIyWlLk6GJQsqaUBKTNV-1" source="M_cTl8z5Hkn0wJi17E9b-39" target="M_cTl8z5Hkn0wJi17E9b-27" edge="1">
          <mxGeometry relative="1" as="geometry" />
        </mxCell>
        <mxCell id="M_cTl8z5Hkn0wJi17E9b-43" value="是" style="edgeLabel;html=1;align=center;verticalAlign=middle;resizable=0;points=[];" parent="M_cTl8z5Hkn0wJi17E9b-41" vertex="1" connectable="0">
          <mxGeometry x="-0.3729" y="-3" relative="1" as="geometry">
            <mxPoint as="offset" />
          </mxGeometry>
        </mxCell>
        <mxCell id="M_cTl8z5Hkn0wJi17E9b-61" value="" style="edgeStyle=orthogonalEdgeStyle;rounded=0;orthogonalLoop=1;jettySize=auto;html=1;" parent="WIyWlLk6GJQsqaUBKTNV-1" source="M_cTl8z5Hkn0wJi17E9b-39" target="M_cTl8z5Hkn0wJi17E9b-60" edge="1">
          <mxGeometry relative="1" as="geometry" />
        </mxCell>
        <mxCell id="M_cTl8z5Hkn0wJi17E9b-62" value="否" style="edgeLabel;html=1;align=center;verticalAlign=middle;resizable=0;points=[];" parent="M_cTl8z5Hkn0wJi17E9b-61" vertex="1" connectable="0">
          <mxGeometry x="-0.1714" y="-2" relative="1" as="geometry">
            <mxPoint as="offset" />
          </mxGeometry>
        </mxCell>
        <mxCell id="M_cTl8z5Hkn0wJi17E9b-39" value="密码是否正确?" style="rhombus;whiteSpace=wrap;html=1;rounded=0;" parent="WIyWlLk6GJQsqaUBKTNV-1" vertex="1">
          <mxGeometry x="90" y="545.5" width="80" height="80" as="geometry" />
        </mxCell>
        <mxCell id="M_cTl8z5Hkn0wJi17E9b-44" value="用户名或密码错误" style="whiteSpace=wrap;html=1;rounded=1;fillColor=#f8cecc;strokeColor=#b85450;" parent="WIyWlLk6GJQsqaUBKTNV-1" vertex="1">
          <mxGeometry x="230" y="420" width="120" height="60" as="geometry" />
        </mxCell>
        <mxCell id="M_cTl8z5Hkn0wJi17E9b-211" style="edgeStyle=orthogonalEdgeStyle;rounded=0;orthogonalLoop=1;jettySize=auto;html=1;exitX=0.5;exitY=1;exitDx=0;exitDy=0;entryX=0.5;entryY=0;entryDx=0;entryDy=0;" parent="WIyWlLk6GJQsqaUBKTNV-1" source="M_cTl8z5Hkn0wJi17E9b-48" target="M_cTl8z5Hkn0wJi17E9b-210" edge="1">
          <mxGeometry relative="1" as="geometry" />
        </mxCell>
        <mxCell id="M_cTl8z5Hkn0wJi17E9b-48" value="验证码错误" style="whiteSpace=wrap;html=1;rounded=0;" parent="WIyWlLk6GJQsqaUBKTNV-1" vertex="1">
          <mxGeometry x="-250" y="440" width="120" height="60" as="geometry" />
        </mxCell>
        <mxCell id="M_cTl8z5Hkn0wJi17E9b-207" style="edgeStyle=orthogonalEdgeStyle;rounded=0;orthogonalLoop=1;jettySize=auto;html=1;exitX=0.5;exitY=1;exitDx=0;exitDy=0;entryX=0.5;entryY=0;entryDx=0;entryDy=0;" parent="WIyWlLk6GJQsqaUBKTNV-1" source="M_cTl8z5Hkn0wJi17E9b-60" target="M_cTl8z5Hkn0wJi17E9b-199" edge="1">
          <mxGeometry relative="1" as="geometry" />
        </mxCell>
        <mxCell id="M_cTl8z5Hkn0wJi17E9b-60" value="用户名或密码错误" style="whiteSpace=wrap;html=1;rounded=0;" parent="WIyWlLk6GJQsqaUBKTNV-1" vertex="1">
          <mxGeometry x="230" y="555.5" width="120" height="60" as="geometry" />
        </mxCell>
        <mxCell id="M_cTl8z5Hkn0wJi17E9b-66" value="" style="edgeStyle=orthogonalEdgeStyle;rounded=0;orthogonalLoop=1;jettySize=auto;html=1;" parent="WIyWlLk6GJQsqaUBKTNV-1" source="M_cTl8z5Hkn0wJi17E9b-63" target="M_cTl8z5Hkn0wJi17E9b-65" edge="1">
          <mxGeometry relative="1" as="geometry" />
        </mxCell>
        <mxCell id="M_cTl8z5Hkn0wJi17E9b-70" value="否" style="edgeLabel;html=1;align=center;verticalAlign=middle;resizable=0;points=[];" parent="M_cTl8z5Hkn0wJi17E9b-66" vertex="1" connectable="0">
          <mxGeometry x="0.0762" y="2" relative="1" as="geometry">
            <mxPoint as="offset" />
          </mxGeometry>
        </mxCell>
        <mxCell id="M_cTl8z5Hkn0wJi17E9b-67" style="edgeStyle=orthogonalEdgeStyle;rounded=0;orthogonalLoop=1;jettySize=auto;html=1;exitX=0.5;exitY=1;exitDx=0;exitDy=0;entryX=0.5;entryY=0;entryDx=0;entryDy=0;" parent="WIyWlLk6GJQsqaUBKTNV-1" source="M_cTl8z5Hkn0wJi17E9b-63" target="M_cTl8z5Hkn0wJi17E9b-17" edge="1">
          <mxGeometry relative="1" as="geometry" />
        </mxCell>
        <mxCell id="M_cTl8z5Hkn0wJi17E9b-69" value="是" style="edgeLabel;html=1;align=center;verticalAlign=middle;resizable=0;points=[];" parent="M_cTl8z5Hkn0wJi17E9b-67" vertex="1" connectable="0">
          <mxGeometry x="-0.2619" y="1" relative="1" as="geometry">
            <mxPoint as="offset" />
          </mxGeometry>
        </mxCell>
        <mxCell id="M_cTl8z5Hkn0wJi17E9b-63" value="所含参数是否正确?" style="rhombus;whiteSpace=wrap;html=1;rounded=0;" parent="WIyWlLk6GJQsqaUBKTNV-1" vertex="1">
          <mxGeometry x="-70" y="130" width="80" height="80" as="geometry" />
        </mxCell>
        <mxCell id="M_cTl8z5Hkn0wJi17E9b-65" value="登录失败" style="whiteSpace=wrap;html=1;rounded=1;fillColor=#fad9d5;strokeColor=#ae4132;" parent="WIyWlLk6GJQsqaUBKTNV-1" vertex="1">
          <mxGeometry x="70" y="140" width="120" height="60" as="geometry" />
        </mxCell>
        <mxCell id="M_cTl8z5Hkn0wJi17E9b-73" value="" style="edgeStyle=orthogonalEdgeStyle;rounded=0;orthogonalLoop=1;jettySize=auto;html=1;" parent="WIyWlLk6GJQsqaUBKTNV-1" source="M_cTl8z5Hkn0wJi17E9b-71" target="M_cTl8z5Hkn0wJi17E9b-72" edge="1">
          <mxGeometry relative="1" as="geometry" />
        </mxCell>
        <mxCell id="M_cTl8z5Hkn0wJi17E9b-71" value="用户注册" style="rounded=1;whiteSpace=wrap;html=1;" parent="WIyWlLk6GJQsqaUBKTNV-1" vertex="1">
          <mxGeometry x="-750" width="120" height="60" as="geometry" />
        </mxCell>
        <mxCell id="M_cTl8z5Hkn0wJi17E9b-75" value="" style="edgeStyle=orthogonalEdgeStyle;rounded=0;orthogonalLoop=1;jettySize=auto;html=1;" parent="WIyWlLk6GJQsqaUBKTNV-1" source="M_cTl8z5Hkn0wJi17E9b-72" target="M_cTl8z5Hkn0wJi17E9b-74" edge="1">
          <mxGeometry relative="1" as="geometry" />
        </mxCell>
        <mxCell id="M_cTl8z5Hkn0wJi17E9b-76" value="是" style="edgeLabel;html=1;align=center;verticalAlign=middle;resizable=0;points=[];" parent="M_cTl8z5Hkn0wJi17E9b-75" vertex="1" connectable="0">
          <mxGeometry x="-0.1557" y="3" relative="1" as="geometry">
            <mxPoint as="offset" />
          </mxGeometry>
        </mxCell>
        <mxCell id="M_cTl8z5Hkn0wJi17E9b-83" value="" style="edgeStyle=orthogonalEdgeStyle;rounded=0;orthogonalLoop=1;jettySize=auto;html=1;" parent="WIyWlLk6GJQsqaUBKTNV-1" source="M_cTl8z5Hkn0wJi17E9b-72" target="M_cTl8z5Hkn0wJi17E9b-82" edge="1">
          <mxGeometry relative="1" as="geometry" />
        </mxCell>
        <mxCell id="M_cTl8z5Hkn0wJi17E9b-84" value="否" style="edgeLabel;html=1;align=center;verticalAlign=middle;resizable=0;points=[];" parent="M_cTl8z5Hkn0wJi17E9b-83" vertex="1" connectable="0">
          <mxGeometry x="-0.0615" y="3" relative="1" as="geometry">
            <mxPoint as="offset" />
          </mxGeometry>
        </mxCell>
        <mxCell id="M_cTl8z5Hkn0wJi17E9b-72" value="所含参数是否正确?" style="rhombus;whiteSpace=wrap;html=1;rounded=0;" parent="WIyWlLk6GJQsqaUBKTNV-1" vertex="1">
          <mxGeometry x="-730" y="130" width="80" height="80" as="geometry" />
        </mxCell>
        <mxCell id="M_cTl8z5Hkn0wJi17E9b-86" value="" style="edgeStyle=orthogonalEdgeStyle;rounded=0;orthogonalLoop=1;jettySize=auto;html=1;" parent="WIyWlLk6GJQsqaUBKTNV-1" source="M_cTl8z5Hkn0wJi17E9b-74" target="M_cTl8z5Hkn0wJi17E9b-85" edge="1">
          <mxGeometry relative="1" as="geometry" />
        </mxCell>
        <mxCell id="M_cTl8z5Hkn0wJi17E9b-87" value="是" style="edgeLabel;html=1;align=center;verticalAlign=middle;resizable=0;points=[];" parent="M_cTl8z5Hkn0wJi17E9b-86" vertex="1" connectable="0">
          <mxGeometry x="-0.3224" y="1" relative="1" as="geometry">
            <mxPoint as="offset" />
          </mxGeometry>
        </mxCell>
        <mxCell id="M_cTl8z5Hkn0wJi17E9b-89" value="" style="edgeStyle=orthogonalEdgeStyle;rounded=0;orthogonalLoop=1;jettySize=auto;html=1;" parent="WIyWlLk6GJQsqaUBKTNV-1" source="M_cTl8z5Hkn0wJi17E9b-74" target="M_cTl8z5Hkn0wJi17E9b-88" edge="1">
          <mxGeometry relative="1" as="geometry" />
        </mxCell>
        <mxCell id="M_cTl8z5Hkn0wJi17E9b-92" value="否" style="edgeLabel;html=1;align=center;verticalAlign=middle;resizable=0;points=[];" parent="M_cTl8z5Hkn0wJi17E9b-89" vertex="1" connectable="0">
          <mxGeometry x="-0.1723" y="1" relative="1" as="geometry">
            <mxPoint as="offset" />
          </mxGeometry>
        </mxCell>
        <mxCell id="M_cTl8z5Hkn0wJi17E9b-74" value="数据库中是否已有相同用户名或手机号?" style="rhombus;whiteSpace=wrap;html=1;rounded=0;" parent="WIyWlLk6GJQsqaUBKTNV-1" vertex="1">
          <mxGeometry x="-730" y="290" width="80" height="80" as="geometry" />
        </mxCell>
        <mxCell id="M_cTl8z5Hkn0wJi17E9b-82" value="注册失败" style="whiteSpace=wrap;html=1;rounded=1;fillColor=#f8cecc;strokeColor=#b85450;" parent="WIyWlLk6GJQsqaUBKTNV-1" vertex="1">
          <mxGeometry x="-590" y="140" width="120" height="60" as="geometry" />
        </mxCell>
        <mxCell id="M_cTl8z5Hkn0wJi17E9b-85" value="已有相同用户" style="whiteSpace=wrap;html=1;rounded=1;fillColor=#f8cecc;strokeColor=#b85450;" parent="WIyWlLk6GJQsqaUBKTNV-1" vertex="1">
          <mxGeometry x="-590" y="300" width="120" height="60" as="geometry" />
        </mxCell>
        <mxCell id="M_cTl8z5Hkn0wJi17E9b-91" value="" style="edgeStyle=orthogonalEdgeStyle;rounded=0;orthogonalLoop=1;jettySize=auto;html=1;" parent="WIyWlLk6GJQsqaUBKTNV-1" source="M_cTl8z5Hkn0wJi17E9b-88" target="M_cTl8z5Hkn0wJi17E9b-90" edge="1">
          <mxGeometry relative="1" as="geometry" />
        </mxCell>
        <mxCell id="M_cTl8z5Hkn0wJi17E9b-88" value="注册用户" style="whiteSpace=wrap;html=1;rounded=0;" parent="WIyWlLk6GJQsqaUBKTNV-1" vertex="1">
          <mxGeometry x="-750" y="460" width="120" height="60" as="geometry" />
        </mxCell>
        <mxCell id="M_cTl8z5Hkn0wJi17E9b-141" value="" style="edgeStyle=orthogonalEdgeStyle;rounded=0;orthogonalLoop=1;jettySize=auto;html=1;" parent="WIyWlLk6GJQsqaUBKTNV-1" source="M_cTl8z5Hkn0wJi17E9b-90" target="M_cTl8z5Hkn0wJi17E9b-140" edge="1">
          <mxGeometry relative="1" as="geometry" />
        </mxCell>
        <mxCell id="M_cTl8z5Hkn0wJi17E9b-90" value="注册成功" style="whiteSpace=wrap;html=1;rounded=1;fillColor=#d5e8d4;strokeColor=#82b366;" parent="WIyWlLk6GJQsqaUBKTNV-1" vertex="1">
          <mxGeometry x="-750" y="600" width="120" height="60" as="geometry" />
        </mxCell>
        <mxCell id="M_cTl8z5Hkn0wJi17E9b-95" value="" style="edgeStyle=orthogonalEdgeStyle;rounded=0;orthogonalLoop=1;jettySize=auto;html=1;" parent="WIyWlLk6GJQsqaUBKTNV-1" source="M_cTl8z5Hkn0wJi17E9b-93" target="M_cTl8z5Hkn0wJi17E9b-94" edge="1">
          <mxGeometry relative="1" as="geometry" />
        </mxCell>
        <mxCell id="M_cTl8z5Hkn0wJi17E9b-93" value="第三方登录" style="rounded=1;whiteSpace=wrap;html=1;" parent="WIyWlLk6GJQsqaUBKTNV-1" vertex="1">
          <mxGeometry x="590" width="120" height="60" as="geometry" />
        </mxCell>
        <mxCell id="M_cTl8z5Hkn0wJi17E9b-97" value="" style="edgeStyle=orthogonalEdgeStyle;rounded=0;orthogonalLoop=1;jettySize=auto;html=1;" parent="WIyWlLk6GJQsqaUBKTNV-1" source="M_cTl8z5Hkn0wJi17E9b-94" target="M_cTl8z5Hkn0wJi17E9b-96" edge="1">
          <mxGeometry relative="1" as="geometry" />
        </mxCell>
        <mxCell id="M_cTl8z5Hkn0wJi17E9b-98" value="否" style="edgeLabel;html=1;align=center;verticalAlign=middle;resizable=0;points=[];" parent="M_cTl8z5Hkn0wJi17E9b-97" vertex="1" connectable="0">
          <mxGeometry x="-0.0532" y="1" relative="1" as="geometry">
            <mxPoint as="offset" />
          </mxGeometry>
        </mxCell>
        <mxCell id="M_cTl8z5Hkn0wJi17E9b-100" value="" style="edgeStyle=orthogonalEdgeStyle;rounded=0;orthogonalLoop=1;jettySize=auto;html=1;" parent="WIyWlLk6GJQsqaUBKTNV-1" source="M_cTl8z5Hkn0wJi17E9b-94" target="M_cTl8z5Hkn0wJi17E9b-99" edge="1">
          <mxGeometry relative="1" as="geometry" />
        </mxCell>
        <mxCell id="M_cTl8z5Hkn0wJi17E9b-104" value="是" style="edgeLabel;html=1;align=center;verticalAlign=middle;resizable=0;points=[];" parent="M_cTl8z5Hkn0wJi17E9b-100" vertex="1" connectable="0">
          <mxGeometry x="-0.0936" y="4" relative="1" as="geometry">
            <mxPoint as="offset" />
          </mxGeometry>
        </mxCell>
        <mxCell id="M_cTl8z5Hkn0wJi17E9b-94" value="第三方登录成功?" style="rhombus;whiteSpace=wrap;html=1;rounded=0;" parent="WIyWlLk6GJQsqaUBKTNV-1" vertex="1">
          <mxGeometry x="610" y="130" width="80" height="80" as="geometry" />
        </mxCell>
        <mxCell id="M_cTl8z5Hkn0wJi17E9b-96" value="登录失败" style="whiteSpace=wrap;html=1;rounded=1;fillColor=#f8cecc;strokeColor=#b85450;" parent="WIyWlLk6GJQsqaUBKTNV-1" vertex="1">
          <mxGeometry x="750" y="140" width="120" height="60" as="geometry" />
        </mxCell>
        <mxCell id="M_cTl8z5Hkn0wJi17E9b-102" value="" style="edgeStyle=orthogonalEdgeStyle;rounded=0;orthogonalLoop=1;jettySize=auto;html=1;" parent="WIyWlLk6GJQsqaUBKTNV-1" source="M_cTl8z5Hkn0wJi17E9b-99" target="M_cTl8z5Hkn0wJi17E9b-101" edge="1">
          <mxGeometry relative="1" as="geometry" />
        </mxCell>
        <mxCell id="M_cTl8z5Hkn0wJi17E9b-103" value="否" style="edgeLabel;html=1;align=center;verticalAlign=middle;resizable=0;points=[];" parent="M_cTl8z5Hkn0wJi17E9b-102" vertex="1" connectable="0">
          <mxGeometry x="0.0627" y="1" relative="1" as="geometry">
            <mxPoint as="offset" />
          </mxGeometry>
        </mxCell>
        <mxCell id="M_cTl8z5Hkn0wJi17E9b-106" value="" style="edgeStyle=orthogonalEdgeStyle;rounded=0;orthogonalLoop=1;jettySize=auto;html=1;" parent="WIyWlLk6GJQsqaUBKTNV-1" source="M_cTl8z5Hkn0wJi17E9b-99" target="M_cTl8z5Hkn0wJi17E9b-105" edge="1">
          <mxGeometry relative="1" as="geometry" />
        </mxCell>
        <mxCell id="M_cTl8z5Hkn0wJi17E9b-107" value="是" style="edgeLabel;html=1;align=center;verticalAlign=middle;resizable=0;points=[];" parent="M_cTl8z5Hkn0wJi17E9b-106" vertex="1" connectable="0">
          <mxGeometry x="-0.2523" y="2" relative="1" as="geometry">
            <mxPoint x="-60" y="55" as="offset" />
          </mxGeometry>
        </mxCell>
        <mxCell id="M_cTl8z5Hkn0wJi17E9b-99" value="用户是否已绑定第三方账号" style="rhombus;whiteSpace=wrap;html=1;rounded=0;" parent="WIyWlLk6GJQsqaUBKTNV-1" vertex="1">
          <mxGeometry x="610" y="290" width="80" height="80" as="geometry" />
        </mxCell>
        <mxCell id="M_cTl8z5Hkn0wJi17E9b-101" value="跳转绑定用户界面" style="whiteSpace=wrap;html=1;rounded=1;fillColor=#d5e8d4;strokeColor=#82b366;" parent="WIyWlLk6GJQsqaUBKTNV-1" vertex="1">
          <mxGeometry x="750" y="300" width="120" height="60" as="geometry" />
        </mxCell>
        <mxCell id="M_cTl8z5Hkn0wJi17E9b-105" value="登录成功" style="whiteSpace=wrap;html=1;rounded=1;fillColor=#d5e8d4;strokeColor=#82b366;" parent="WIyWlLk6GJQsqaUBKTNV-1" vertex="1">
          <mxGeometry x="590" y="460" width="120" height="60" as="geometry" />
        </mxCell>
        <mxCell id="M_cTl8z5Hkn0wJi17E9b-110" value="" style="edgeStyle=orthogonalEdgeStyle;rounded=0;orthogonalLoop=1;jettySize=auto;html=1;" parent="WIyWlLk6GJQsqaUBKTNV-1" source="M_cTl8z5Hkn0wJi17E9b-108" target="M_cTl8z5Hkn0wJi17E9b-109" edge="1">
          <mxGeometry relative="1" as="geometry" />
        </mxCell>
        <mxCell id="M_cTl8z5Hkn0wJi17E9b-108" value="绑定用户" style="rounded=1;whiteSpace=wrap;html=1;" parent="WIyWlLk6GJQsqaUBKTNV-1" vertex="1">
          <mxGeometry x="987" width="120" height="60" as="geometry" />
        </mxCell>
        <mxCell id="M_cTl8z5Hkn0wJi17E9b-112" value="" style="edgeStyle=orthogonalEdgeStyle;rounded=0;orthogonalLoop=1;jettySize=auto;html=1;" parent="WIyWlLk6GJQsqaUBKTNV-1" source="M_cTl8z5Hkn0wJi17E9b-109" target="M_cTl8z5Hkn0wJi17E9b-111" edge="1">
          <mxGeometry relative="1" as="geometry" />
        </mxCell>
        <mxCell id="M_cTl8z5Hkn0wJi17E9b-127" value="是" style="edgeLabel;html=1;align=center;verticalAlign=middle;resizable=0;points=[];" parent="M_cTl8z5Hkn0wJi17E9b-112" vertex="1" connectable="0">
          <mxGeometry x="-0.3852" y="1" relative="1" as="geometry">
            <mxPoint as="offset" />
          </mxGeometry>
        </mxCell>
        <mxCell id="M_cTl8z5Hkn0wJi17E9b-117" value="" style="edgeStyle=orthogonalEdgeStyle;rounded=0;orthogonalLoop=1;jettySize=auto;html=1;" parent="WIyWlLk6GJQsqaUBKTNV-1" source="M_cTl8z5Hkn0wJi17E9b-109" target="M_cTl8z5Hkn0wJi17E9b-116" edge="1">
          <mxGeometry relative="1" as="geometry" />
        </mxCell>
        <mxCell id="M_cTl8z5Hkn0wJi17E9b-128" value="否" style="edgeLabel;html=1;align=center;verticalAlign=middle;resizable=0;points=[];" parent="M_cTl8z5Hkn0wJi17E9b-117" vertex="1" connectable="0">
          <mxGeometry x="-0.0611" y="-1" relative="1" as="geometry">
            <mxPoint as="offset" />
          </mxGeometry>
        </mxCell>
        <mxCell id="M_cTl8z5Hkn0wJi17E9b-109" value="登录状态是否为已登录?" style="rhombus;whiteSpace=wrap;html=1;rounded=0;" parent="WIyWlLk6GJQsqaUBKTNV-1" vertex="1">
          <mxGeometry x="1007" y="130" width="80" height="80" as="geometry" />
        </mxCell>
        <mxCell id="M_cTl8z5Hkn0wJi17E9b-119" value="" style="edgeStyle=orthogonalEdgeStyle;rounded=0;orthogonalLoop=1;jettySize=auto;html=1;" parent="WIyWlLk6GJQsqaUBKTNV-1" source="M_cTl8z5Hkn0wJi17E9b-111" target="M_cTl8z5Hkn0wJi17E9b-118" edge="1">
          <mxGeometry relative="1" as="geometry" />
        </mxCell>
        <mxCell id="M_cTl8z5Hkn0wJi17E9b-111" value="跳转至第三方登录" style="whiteSpace=wrap;html=1;rounded=0;" parent="WIyWlLk6GJQsqaUBKTNV-1" vertex="1">
          <mxGeometry x="987" y="300" width="120" height="60" as="geometry" />
        </mxCell>
        <mxCell id="M_cTl8z5Hkn0wJi17E9b-130" value="" style="edgeStyle=orthogonalEdgeStyle;rounded=0;orthogonalLoop=1;jettySize=auto;html=1;" parent="WIyWlLk6GJQsqaUBKTNV-1" source="M_cTl8z5Hkn0wJi17E9b-116" target="M_cTl8z5Hkn0wJi17E9b-129" edge="1">
          <mxGeometry relative="1" as="geometry" />
        </mxCell>
        <mxCell id="M_cTl8z5Hkn0wJi17E9b-131" value="是" style="edgeLabel;html=1;align=center;verticalAlign=middle;resizable=0;points=[];" parent="M_cTl8z5Hkn0wJi17E9b-130" vertex="1" connectable="0">
          <mxGeometry x="-0.4147" y="-1" relative="1" as="geometry">
            <mxPoint as="offset" />
          </mxGeometry>
        </mxCell>
        <mxCell id="M_cTl8z5Hkn0wJi17E9b-136" value="" style="edgeStyle=orthogonalEdgeStyle;rounded=0;orthogonalLoop=1;jettySize=auto;html=1;" parent="WIyWlLk6GJQsqaUBKTNV-1" source="M_cTl8z5Hkn0wJi17E9b-116" target="M_cTl8z5Hkn0wJi17E9b-135" edge="1">
          <mxGeometry relative="1" as="geometry" />
        </mxCell>
        <mxCell id="M_cTl8z5Hkn0wJi17E9b-138" value="否" style="edgeLabel;html=1;align=center;verticalAlign=middle;resizable=0;points=[];" parent="M_cTl8z5Hkn0wJi17E9b-136" vertex="1" connectable="0">
          <mxGeometry x="-0.1654" y="-3" relative="1" as="geometry">
            <mxPoint as="offset" />
          </mxGeometry>
        </mxCell>
        <mxCell id="M_cTl8z5Hkn0wJi17E9b-116" value="是否已注册系统账号" style="rhombus;whiteSpace=wrap;html=1;rounded=0;" parent="WIyWlLk6GJQsqaUBKTNV-1" vertex="1">
          <mxGeometry x="1167" y="130" width="80" height="80" as="geometry" />
        </mxCell>
        <mxCell id="M_cTl8z5Hkn0wJi17E9b-121" value="" style="edgeStyle=orthogonalEdgeStyle;rounded=0;orthogonalLoop=1;jettySize=auto;html=1;" parent="WIyWlLk6GJQsqaUBKTNV-1" source="M_cTl8z5Hkn0wJi17E9b-118" target="M_cTl8z5Hkn0wJi17E9b-120" edge="1">
          <mxGeometry relative="1" as="geometry" />
        </mxCell>
        <mxCell id="M_cTl8z5Hkn0wJi17E9b-124" value="是" style="edgeLabel;html=1;align=center;verticalAlign=middle;resizable=0;points=[];" parent="M_cTl8z5Hkn0wJi17E9b-121" vertex="1" connectable="0">
          <mxGeometry x="-0.1524" relative="1" as="geometry">
            <mxPoint as="offset" />
          </mxGeometry>
        </mxCell>
        <mxCell id="M_cTl8z5Hkn0wJi17E9b-126" value="" style="edgeStyle=orthogonalEdgeStyle;rounded=0;orthogonalLoop=1;jettySize=auto;html=1;" parent="WIyWlLk6GJQsqaUBKTNV-1" source="M_cTl8z5Hkn0wJi17E9b-118" target="M_cTl8z5Hkn0wJi17E9b-125" edge="1">
          <mxGeometry relative="1" as="geometry" />
        </mxCell>
        <mxCell id="M_cTl8z5Hkn0wJi17E9b-139" value="否" style="edgeLabel;html=1;align=center;verticalAlign=middle;resizable=0;points=[];" parent="M_cTl8z5Hkn0wJi17E9b-126" vertex="1" connectable="0">
          <mxGeometry x="-0.0932" y="-2" relative="1" as="geometry">
            <mxPoint as="offset" />
          </mxGeometry>
        </mxCell>
        <mxCell id="M_cTl8z5Hkn0wJi17E9b-118" value="登录成功?" style="rhombus;whiteSpace=wrap;html=1;rounded=0;" parent="WIyWlLk6GJQsqaUBKTNV-1" vertex="1">
          <mxGeometry x="1007" y="430" width="80" height="80" as="geometry" />
        </mxCell>
        <mxCell id="M_cTl8z5Hkn0wJi17E9b-123" value="" style="edgeStyle=orthogonalEdgeStyle;rounded=0;orthogonalLoop=1;jettySize=auto;html=1;" parent="WIyWlLk6GJQsqaUBKTNV-1" source="M_cTl8z5Hkn0wJi17E9b-120" target="M_cTl8z5Hkn0wJi17E9b-122" edge="1">
          <mxGeometry relative="1" as="geometry" />
        </mxCell>
        <mxCell id="M_cTl8z5Hkn0wJi17E9b-120" value="写入社会用户表并创建关联" style="whiteSpace=wrap;html=1;rounded=0;" parent="WIyWlLk6GJQsqaUBKTNV-1" vertex="1">
          <mxGeometry x="987" y="600" width="120" height="60" as="geometry" />
        </mxCell>
        <mxCell id="M_cTl8z5Hkn0wJi17E9b-122" value="绑定成功" style="whiteSpace=wrap;html=1;rounded=1;fillColor=#d5e8d4;strokeColor=#82b366;" parent="WIyWlLk6GJQsqaUBKTNV-1" vertex="1">
          <mxGeometry x="987" y="740" width="120" height="60" as="geometry" />
        </mxCell>
        <mxCell id="M_cTl8z5Hkn0wJi17E9b-125" value="绑定失败" style="whiteSpace=wrap;html=1;rounded=1;fillColor=#f8cecc;strokeColor=#b85450;" parent="WIyWlLk6GJQsqaUBKTNV-1" vertex="1">
          <mxGeometry x="827" y="440" width="120" height="60" as="geometry" />
        </mxCell>
        <mxCell id="M_cTl8z5Hkn0wJi17E9b-134" style="edgeStyle=orthogonalEdgeStyle;rounded=0;orthogonalLoop=1;jettySize=auto;html=1;exitX=0.5;exitY=1;exitDx=0;exitDy=0;entryX=1;entryY=0.5;entryDx=0;entryDy=0;" parent="WIyWlLk6GJQsqaUBKTNV-1" source="M_cTl8z5Hkn0wJi17E9b-129" target="M_cTl8z5Hkn0wJi17E9b-120" edge="1">
          <mxGeometry relative="1" as="geometry" />
        </mxCell>
        <mxCell id="M_cTl8z5Hkn0wJi17E9b-129" value="用户登录(callback=binding)" style="whiteSpace=wrap;html=1;rounded=0;" parent="WIyWlLk6GJQsqaUBKTNV-1" vertex="1">
          <mxGeometry x="1147" y="300" width="120" height="60" as="geometry" />
        </mxCell>
        <mxCell id="M_cTl8z5Hkn0wJi17E9b-137" style="edgeStyle=orthogonalEdgeStyle;rounded=0;orthogonalLoop=1;jettySize=auto;html=1;exitX=0.5;exitY=1;exitDx=0;exitDy=0;entryX=1;entryY=0.5;entryDx=0;entryDy=0;" parent="WIyWlLk6GJQsqaUBKTNV-1" source="M_cTl8z5Hkn0wJi17E9b-135" target="M_cTl8z5Hkn0wJi17E9b-129" edge="1">
          <mxGeometry relative="1" as="geometry" />
        </mxCell>
        <mxCell id="M_cTl8z5Hkn0wJi17E9b-135" value="用户注册&lt;div&gt;(callback=binding)&lt;/div&gt;" style="whiteSpace=wrap;html=1;rounded=0;" parent="WIyWlLk6GJQsqaUBKTNV-1" vertex="1">
          <mxGeometry x="1337" y="140" width="120" height="60" as="geometry" />
        </mxCell>
        <mxCell id="M_cTl8z5Hkn0wJi17E9b-140" value="跳转至对应callback" style="whiteSpace=wrap;html=1;rounded=1;fillColor=#d5e8d4;strokeColor=#82b366;" parent="WIyWlLk6GJQsqaUBKTNV-1" vertex="1">
          <mxGeometry x="-750" y="740" width="120" height="60" as="geometry" />
        </mxCell>
        <mxCell id="M_cTl8z5Hkn0wJi17E9b-142" value="跳转至对应callback" style="whiteSpace=wrap;html=1;rounded=1;fillColor=#d5e8d4;strokeColor=#82b366;" parent="WIyWlLk6GJQsqaUBKTNV-1" vertex="1">
          <mxGeometry x="-90" y="1090" width="120" height="60" as="geometry" />
        </mxCell>
        <mxCell id="M_cTl8z5Hkn0wJi17E9b-146" value="" style="edgeStyle=orthogonalEdgeStyle;rounded=0;orthogonalLoop=1;jettySize=auto;html=1;" parent="WIyWlLk6GJQsqaUBKTNV-1" source="M_cTl8z5Hkn0wJi17E9b-144" target="M_cTl8z5Hkn0wJi17E9b-145" edge="1">
          <mxGeometry relative="1" as="geometry" />
        </mxCell>
        <mxCell id="M_cTl8z5Hkn0wJi17E9b-144" value="生成验证码" style="rounded=1;whiteSpace=wrap;html=1;" parent="WIyWlLk6GJQsqaUBKTNV-1" vertex="1">
          <mxGeometry x="-730" y="1169" width="120" height="60" as="geometry" />
        </mxCell>
        <mxCell id="M_cTl8z5Hkn0wJi17E9b-155" value="" style="edgeStyle=orthogonalEdgeStyle;rounded=0;orthogonalLoop=1;jettySize=auto;html=1;" parent="WIyWlLk6GJQsqaUBKTNV-1" source="M_cTl8z5Hkn0wJi17E9b-145" target="M_cTl8z5Hkn0wJi17E9b-154" edge="1">
          <mxGeometry relative="1" as="geometry" />
        </mxCell>
        <mxCell id="M_cTl8z5Hkn0wJi17E9b-160" value="否" style="edgeLabel;html=1;align=center;verticalAlign=middle;resizable=0;points=[];" parent="M_cTl8z5Hkn0wJi17E9b-155" vertex="1" connectable="0">
          <mxGeometry x="0.0022" relative="1" as="geometry">
            <mxPoint as="offset" />
          </mxGeometry>
        </mxCell>
        <mxCell id="M_cTl8z5Hkn0wJi17E9b-157" style="edgeStyle=orthogonalEdgeStyle;rounded=0;orthogonalLoop=1;jettySize=auto;html=1;exitX=0.5;exitY=1;exitDx=0;exitDy=0;" parent="WIyWlLk6GJQsqaUBKTNV-1" source="M_cTl8z5Hkn0wJi17E9b-145" target="M_cTl8z5Hkn0wJi17E9b-149" edge="1">
          <mxGeometry relative="1" as="geometry" />
        </mxCell>
        <mxCell id="M_cTl8z5Hkn0wJi17E9b-158" value="是" style="edgeLabel;html=1;align=center;verticalAlign=middle;resizable=0;points=[];" parent="M_cTl8z5Hkn0wJi17E9b-157" vertex="1" connectable="0">
          <mxGeometry x="-0.1645" y="1" relative="1" as="geometry">
            <mxPoint as="offset" />
          </mxGeometry>
        </mxCell>
        <mxCell id="M_cTl8z5Hkn0wJi17E9b-145" value="手机号是否合规?" style="rhombus;whiteSpace=wrap;html=1;rounded=0;" parent="WIyWlLk6GJQsqaUBKTNV-1" vertex="1">
          <mxGeometry x="-710" y="1299" width="80" height="80" as="geometry" />
        </mxCell>
        <mxCell id="M_cTl8z5Hkn0wJi17E9b-162" value="" style="edgeStyle=orthogonalEdgeStyle;rounded=0;orthogonalLoop=1;jettySize=auto;html=1;" parent="WIyWlLk6GJQsqaUBKTNV-1" source="M_cTl8z5Hkn0wJi17E9b-149" target="M_cTl8z5Hkn0wJi17E9b-161" edge="1">
          <mxGeometry relative="1" as="geometry" />
        </mxCell>
        <mxCell id="M_cTl8z5Hkn0wJi17E9b-165" value="否" style="edgeLabel;html=1;align=center;verticalAlign=middle;resizable=0;points=[];" parent="M_cTl8z5Hkn0wJi17E9b-162" vertex="1" connectable="0">
          <mxGeometry x="0.0487" y="-1" relative="1" as="geometry">
            <mxPoint as="offset" />
          </mxGeometry>
        </mxCell>
        <mxCell id="M_cTl8z5Hkn0wJi17E9b-176" style="edgeStyle=orthogonalEdgeStyle;rounded=0;orthogonalLoop=1;jettySize=auto;html=1;exitX=1;exitY=0.5;exitDx=0;exitDy=0;entryX=0;entryY=0.5;entryDx=0;entryDy=0;" parent="WIyWlLk6GJQsqaUBKTNV-1" source="M_cTl8z5Hkn0wJi17E9b-149" target="M_cTl8z5Hkn0wJi17E9b-175" edge="1">
          <mxGeometry relative="1" as="geometry" />
        </mxCell>
        <mxCell id="M_cTl8z5Hkn0wJi17E9b-182" value="是" style="edgeLabel;html=1;align=center;verticalAlign=middle;resizable=0;points=[];" parent="M_cTl8z5Hkn0wJi17E9b-176" vertex="1" connectable="0">
          <mxGeometry x="-0.2532" y="1" relative="1" as="geometry">
            <mxPoint as="offset" />
          </mxGeometry>
        </mxCell>
        <mxCell id="M_cTl8z5Hkn0wJi17E9b-149" value="手机号是否已注册?" style="rhombus;whiteSpace=wrap;html=1;rounded=0;" parent="WIyWlLk6GJQsqaUBKTNV-1" vertex="1">
          <mxGeometry x="-710" y="1450" width="80" height="80" as="geometry" />
        </mxCell>
        <mxCell id="M_cTl8z5Hkn0wJi17E9b-154" value="验证码生成失败" style="whiteSpace=wrap;html=1;rounded=1;fillColor=#f8cecc;strokeColor=#b85450;" parent="WIyWlLk6GJQsqaUBKTNV-1" vertex="1">
          <mxGeometry x="-570" y="1309" width="120" height="60" as="geometry" />
        </mxCell>
        <mxCell id="M_cTl8z5Hkn0wJi17E9b-164" value="" style="edgeStyle=orthogonalEdgeStyle;rounded=0;orthogonalLoop=1;jettySize=auto;html=1;" parent="WIyWlLk6GJQsqaUBKTNV-1" source="M_cTl8z5Hkn0wJi17E9b-161" target="M_cTl8z5Hkn0wJi17E9b-163" edge="1">
          <mxGeometry relative="1" as="geometry" />
        </mxCell>
        <mxCell id="M_cTl8z5Hkn0wJi17E9b-166" value="是" style="edgeLabel;html=1;align=center;verticalAlign=middle;resizable=0;points=[];" parent="M_cTl8z5Hkn0wJi17E9b-164" vertex="1" connectable="0">
          <mxGeometry x="-0.1284" y="2" relative="1" as="geometry">
            <mxPoint as="offset" />
          </mxGeometry>
        </mxCell>
        <mxCell id="M_cTl8z5Hkn0wJi17E9b-171" value="" style="edgeStyle=orthogonalEdgeStyle;rounded=0;orthogonalLoop=1;jettySize=auto;html=1;" parent="WIyWlLk6GJQsqaUBKTNV-1" source="M_cTl8z5Hkn0wJi17E9b-161" target="M_cTl8z5Hkn0wJi17E9b-170" edge="1">
          <mxGeometry relative="1" as="geometry" />
        </mxCell>
        <mxCell id="M_cTl8z5Hkn0wJi17E9b-174" value="否" style="edgeLabel;html=1;align=center;verticalAlign=middle;resizable=0;points=[];" parent="M_cTl8z5Hkn0wJi17E9b-171" vertex="1" connectable="0">
          <mxGeometry x="-0.3275" relative="1" as="geometry">
            <mxPoint as="offset" />
          </mxGeometry>
        </mxCell>
        <mxCell id="M_cTl8z5Hkn0wJi17E9b-161" value="验证码发送频次是否超过限度?" style="rhombus;whiteSpace=wrap;html=1;rounded=0;" parent="WIyWlLk6GJQsqaUBKTNV-1" vertex="1">
          <mxGeometry x="-710" y="1610" width="80" height="80" as="geometry" />
        </mxCell>
        <mxCell id="M_cTl8z5Hkn0wJi17E9b-163" value="锁定当前IP发送验证码频次" style="whiteSpace=wrap;html=1;rounded=1;fillColor=#f8cecc;strokeColor=#b85450;" parent="WIyWlLk6GJQsqaUBKTNV-1" vertex="1">
          <mxGeometry x="-730" y="1780" width="120" height="60" as="geometry" />
        </mxCell>
        <mxCell id="M_cTl8z5Hkn0wJi17E9b-173" value="" style="edgeStyle=orthogonalEdgeStyle;rounded=0;orthogonalLoop=1;jettySize=auto;html=1;" parent="WIyWlLk6GJQsqaUBKTNV-1" source="M_cTl8z5Hkn0wJi17E9b-170" target="M_cTl8z5Hkn0wJi17E9b-172" edge="1">
          <mxGeometry relative="1" as="geometry" />
        </mxCell>
        <mxCell id="M_cTl8z5Hkn0wJi17E9b-170" value="验证码发送频次记录" style="whiteSpace=wrap;html=1;rounded=0;" parent="WIyWlLk6GJQsqaUBKTNV-1" vertex="1">
          <mxGeometry x="-570" y="1620" width="120" height="60" as="geometry" />
        </mxCell>
        <mxCell id="M_cTl8z5Hkn0wJi17E9b-172" value="发送验证码" style="whiteSpace=wrap;html=1;rounded=1;fillColor=#d5e8d4;strokeColor=#82b366;" parent="WIyWlLk6GJQsqaUBKTNV-1" vertex="1">
          <mxGeometry x="-370" y="1620" width="120" height="60" as="geometry" />
        </mxCell>
        <mxCell id="M_cTl8z5Hkn0wJi17E9b-180" value="" style="edgeStyle=orthogonalEdgeStyle;rounded=0;orthogonalLoop=1;jettySize=auto;html=1;" parent="WIyWlLk6GJQsqaUBKTNV-1" source="M_cTl8z5Hkn0wJi17E9b-175" target="M_cTl8z5Hkn0wJi17E9b-179" edge="1">
          <mxGeometry relative="1" as="geometry" />
        </mxCell>
        <mxCell id="M_cTl8z5Hkn0wJi17E9b-181" value="是" style="edgeLabel;html=1;align=center;verticalAlign=middle;resizable=0;points=[];" parent="M_cTl8z5Hkn0wJi17E9b-180" vertex="1" connectable="0">
          <mxGeometry x="-0.2229" y="-1" relative="1" as="geometry">
            <mxPoint as="offset" />
          </mxGeometry>
        </mxCell>
        <mxCell id="M_cTl8z5Hkn0wJi17E9b-175" value="验证码发送频次是否超过限度?" style="rhombus;whiteSpace=wrap;html=1;rounded=0;" parent="WIyWlLk6GJQsqaUBKTNV-1" vertex="1">
          <mxGeometry x="-570" y="1450" width="80" height="80" as="geometry" />
        </mxCell>
        <mxCell id="M_cTl8z5Hkn0wJi17E9b-177" style="edgeStyle=orthogonalEdgeStyle;rounded=0;orthogonalLoop=1;jettySize=auto;html=1;exitX=0.5;exitY=1;exitDx=0;exitDy=0;entryX=0.332;entryY=-0.001;entryDx=0;entryDy=0;entryPerimeter=0;" parent="WIyWlLk6GJQsqaUBKTNV-1" source="M_cTl8z5Hkn0wJi17E9b-175" target="M_cTl8z5Hkn0wJi17E9b-170" edge="1">
          <mxGeometry relative="1" as="geometry" />
        </mxCell>
        <mxCell id="M_cTl8z5Hkn0wJi17E9b-178" value="否" style="edgeLabel;html=1;align=center;verticalAlign=middle;resizable=0;points=[];" parent="M_cTl8z5Hkn0wJi17E9b-177" vertex="1" connectable="0">
          <mxGeometry x="-0.1125" relative="1" as="geometry">
            <mxPoint as="offset" />
          </mxGeometry>
        </mxCell>
        <mxCell id="M_cTl8z5Hkn0wJi17E9b-179" value="锁定当前手机号发送验证码频次" style="whiteSpace=wrap;html=1;rounded=1;fillColor=#f8cecc;strokeColor=#b85450;" parent="WIyWlLk6GJQsqaUBKTNV-1" vertex="1">
          <mxGeometry x="-430" y="1460" width="120" height="60" as="geometry" />
        </mxCell>
        <mxCell id="M_cTl8z5Hkn0wJi17E9b-185" value="" style="edgeStyle=orthogonalEdgeStyle;rounded=0;orthogonalLoop=1;jettySize=auto;html=1;" parent="WIyWlLk6GJQsqaUBKTNV-1" source="M_cTl8z5Hkn0wJi17E9b-183" target="M_cTl8z5Hkn0wJi17E9b-184" edge="1">
          <mxGeometry relative="1" as="geometry" />
        </mxCell>
        <mxCell id="M_cTl8z5Hkn0wJi17E9b-183" value="判定验证码" style="rounded=1;whiteSpace=wrap;html=1;" parent="WIyWlLk6GJQsqaUBKTNV-1" vertex="1">
          <mxGeometry x="-160" y="1169" width="120" height="60" as="geometry" />
        </mxCell>
        <mxCell id="M_cTl8z5Hkn0wJi17E9b-187" value="" style="edgeStyle=orthogonalEdgeStyle;rounded=0;orthogonalLoop=1;jettySize=auto;html=1;" parent="WIyWlLk6GJQsqaUBKTNV-1" source="M_cTl8z5Hkn0wJi17E9b-184" target="M_cTl8z5Hkn0wJi17E9b-186" edge="1">
          <mxGeometry relative="1" as="geometry" />
        </mxCell>
        <mxCell id="M_cTl8z5Hkn0wJi17E9b-188" value="否" style="edgeLabel;html=1;align=center;verticalAlign=middle;resizable=0;points=[];" parent="M_cTl8z5Hkn0wJi17E9b-187" vertex="1" connectable="0">
          <mxGeometry x="-0.1623" y="1" relative="1" as="geometry">
            <mxPoint as="offset" />
          </mxGeometry>
        </mxCell>
        <mxCell id="M_cTl8z5Hkn0wJi17E9b-190" value="" style="edgeStyle=orthogonalEdgeStyle;rounded=0;orthogonalLoop=1;jettySize=auto;html=1;" parent="WIyWlLk6GJQsqaUBKTNV-1" source="M_cTl8z5Hkn0wJi17E9b-184" target="M_cTl8z5Hkn0wJi17E9b-189" edge="1">
          <mxGeometry relative="1" as="geometry" />
        </mxCell>
        <mxCell id="M_cTl8z5Hkn0wJi17E9b-191" value="是" style="edgeLabel;html=1;align=center;verticalAlign=middle;resizable=0;points=[];" parent="M_cTl8z5Hkn0wJi17E9b-190" vertex="1" connectable="0">
          <mxGeometry x="-0.212" y="2" relative="1" as="geometry">
            <mxPoint as="offset" />
          </mxGeometry>
        </mxCell>
        <mxCell id="M_cTl8z5Hkn0wJi17E9b-184" value="查询缓存中是否有对应手机号?" style="rhombus;whiteSpace=wrap;html=1;rounded=0;" parent="WIyWlLk6GJQsqaUBKTNV-1" vertex="1">
          <mxGeometry x="-140" y="1299" width="80" height="80" as="geometry" />
        </mxCell>
        <mxCell id="M_cTl8z5Hkn0wJi17E9b-186" value="验证码过期" style="whiteSpace=wrap;html=1;rounded=1;fillColor=#f8cecc;strokeColor=#b85450;" parent="WIyWlLk6GJQsqaUBKTNV-1" vertex="1">
          <mxGeometry y="1309" width="120" height="60" as="geometry" />
        </mxCell>
        <mxCell id="M_cTl8z5Hkn0wJi17E9b-193" value="" style="edgeStyle=orthogonalEdgeStyle;rounded=0;orthogonalLoop=1;jettySize=auto;html=1;" parent="WIyWlLk6GJQsqaUBKTNV-1" source="M_cTl8z5Hkn0wJi17E9b-189" target="M_cTl8z5Hkn0wJi17E9b-192" edge="1">
          <mxGeometry relative="1" as="geometry" />
        </mxCell>
        <mxCell id="M_cTl8z5Hkn0wJi17E9b-194" value="是" style="edgeLabel;html=1;align=center;verticalAlign=middle;resizable=0;points=[];" parent="M_cTl8z5Hkn0wJi17E9b-193" vertex="1" connectable="0">
          <mxGeometry x="-0.239" y="-1" relative="1" as="geometry">
            <mxPoint as="offset" />
          </mxGeometry>
        </mxCell>
        <mxCell id="M_cTl8z5Hkn0wJi17E9b-196" value="" style="edgeStyle=orthogonalEdgeStyle;rounded=0;orthogonalLoop=1;jettySize=auto;html=1;" parent="WIyWlLk6GJQsqaUBKTNV-1" source="M_cTl8z5Hkn0wJi17E9b-189" target="M_cTl8z5Hkn0wJi17E9b-195" edge="1">
          <mxGeometry relative="1" as="geometry" />
        </mxCell>
        <mxCell id="M_cTl8z5Hkn0wJi17E9b-197" value="否" style="edgeLabel;html=1;align=center;verticalAlign=middle;resizable=0;points=[];" parent="M_cTl8z5Hkn0wJi17E9b-196" vertex="1" connectable="0">
          <mxGeometry x="-0.0108" relative="1" as="geometry">
            <mxPoint as="offset" />
          </mxGeometry>
        </mxCell>
        <mxCell id="M_cTl8z5Hkn0wJi17E9b-189" value="判断验证码内容是否一致?" style="rhombus;whiteSpace=wrap;html=1;rounded=0;" parent="WIyWlLk6GJQsqaUBKTNV-1" vertex="1">
          <mxGeometry x="-140" y="1459" width="80" height="80" as="geometry" />
        </mxCell>
        <mxCell id="M_cTl8z5Hkn0wJi17E9b-192" value="验证码正确" style="whiteSpace=wrap;html=1;rounded=1;fillColor=#d5e8d4;strokeColor=#82b366;" parent="WIyWlLk6GJQsqaUBKTNV-1" vertex="1">
          <mxGeometry x="-160" y="1629" width="120" height="60" as="geometry" />
        </mxCell>
        <mxCell id="M_cTl8z5Hkn0wJi17E9b-195" value="验证码错误" style="whiteSpace=wrap;html=1;rounded=1;fillColor=#f8cecc;strokeColor=#b85450;" parent="WIyWlLk6GJQsqaUBKTNV-1" vertex="1">
          <mxGeometry y="1469" width="120" height="60" as="geometry" />
        </mxCell>
        <mxCell id="M_cTl8z5Hkn0wJi17E9b-198" value="" style="edgeStyle=orthogonalEdgeStyle;rounded=0;orthogonalLoop=1;jettySize=auto;html=1;" parent="WIyWlLk6GJQsqaUBKTNV-1" source="M_cTl8z5Hkn0wJi17E9b-199" target="M_cTl8z5Hkn0wJi17E9b-204" edge="1">
          <mxGeometry relative="1" as="geometry" />
        </mxCell>
        <mxCell id="M_cTl8z5Hkn0wJi17E9b-199" value="失败次数累计+1" style="whiteSpace=wrap;html=1;rounded=0;" parent="WIyWlLk6GJQsqaUBKTNV-1" vertex="1">
          <mxGeometry x="230" y="674.5" width="120" height="60" as="geometry" />
        </mxCell>
        <mxCell id="M_cTl8z5Hkn0wJi17E9b-200" value="" style="edgeStyle=orthogonalEdgeStyle;rounded=0;orthogonalLoop=1;jettySize=auto;html=1;" parent="WIyWlLk6GJQsqaUBKTNV-1" source="M_cTl8z5Hkn0wJi17E9b-204" target="M_cTl8z5Hkn0wJi17E9b-205" edge="1">
          <mxGeometry relative="1" as="geometry" />
        </mxCell>
        <mxCell id="M_cTl8z5Hkn0wJi17E9b-201" value="是" style="edgeLabel;html=1;align=center;verticalAlign=middle;resizable=0;points=[];" parent="M_cTl8z5Hkn0wJi17E9b-200" vertex="1" connectable="0">
          <mxGeometry x="-0.1524" y="2" relative="1" as="geometry">
            <mxPoint as="offset" />
          </mxGeometry>
        </mxCell>
        <mxCell id="M_cTl8z5Hkn0wJi17E9b-208" style="edgeStyle=orthogonalEdgeStyle;rounded=0;orthogonalLoop=1;jettySize=auto;html=1;exitX=1;exitY=0.5;exitDx=0;exitDy=0;entryX=0;entryY=0.5;entryDx=0;entryDy=0;" parent="WIyWlLk6GJQsqaUBKTNV-1" source="M_cTl8z5Hkn0wJi17E9b-204" target="M_cTl8z5Hkn0wJi17E9b-206" edge="1">
          <mxGeometry relative="1" as="geometry" />
        </mxCell>
        <mxCell id="M_cTl8z5Hkn0wJi17E9b-209" value="否" style="edgeLabel;html=1;align=center;verticalAlign=middle;resizable=0;points=[];" parent="M_cTl8z5Hkn0wJi17E9b-208" vertex="1" connectable="0">
          <mxGeometry x="-0.2618" y="1" relative="1" as="geometry">
            <mxPoint as="offset" />
          </mxGeometry>
        </mxCell>
        <mxCell id="M_cTl8z5Hkn0wJi17E9b-204" value="登录次数达到最大尝试次数?" style="rhombus;whiteSpace=wrap;html=1;rounded=0;" parent="WIyWlLk6GJQsqaUBKTNV-1" vertex="1">
          <mxGeometry x="240" y="804.5" width="100" height="100" as="geometry" />
        </mxCell>
        <mxCell id="M_cTl8z5Hkn0wJi17E9b-205" value="用户锁定" style="whiteSpace=wrap;html=1;rounded=1;fillColor=#f8cecc;strokeColor=#b85450;" parent="WIyWlLk6GJQsqaUBKTNV-1" vertex="1">
          <mxGeometry x="230" y="974.5" width="120" height="60" as="geometry" />
        </mxCell>
        <mxCell id="M_cTl8z5Hkn0wJi17E9b-206" value="登陆失败" style="whiteSpace=wrap;html=1;rounded=1;fillColor=#f8cecc;strokeColor=#b85450;" parent="WIyWlLk6GJQsqaUBKTNV-1" vertex="1">
          <mxGeometry x="390" y="824.5" width="120" height="60" as="geometry" />
        </mxCell>
        <mxCell id="M_cTl8z5Hkn0wJi17E9b-210" value="登陆失败" style="whiteSpace=wrap;html=1;rounded=1;fillColor=#f8cecc;strokeColor=#b85450;" parent="WIyWlLk6GJQsqaUBKTNV-1" vertex="1">
          <mxGeometry x="-250" y="600" width="120" height="60" as="geometry" />
        </mxCell>
        <mxCell id="mRb_3jqGlFHB-wEnceeY-1" value="" style="edgeStyle=orthogonalEdgeStyle;rounded=0;orthogonalLoop=1;jettySize=auto;html=1;" parent="WIyWlLk6GJQsqaUBKTNV-1" source="9MFl-5R6tCMCHo1rS8Rg-0" target="mRb_3jqGlFHB-wEnceeY-0" edge="1">
          <mxGeometry relative="1" as="geometry" />
        </mxCell>
        <mxCell id="9MFl-5R6tCMCHo1rS8Rg-0" value="获取手机验证码" style="rounded=1;whiteSpace=wrap;html=1;" parent="WIyWlLk6GJQsqaUBKTNV-1" vertex="1">
          <mxGeometry x="340" y="1169" width="120" height="60" as="geometry" />
        </mxCell>
        <mxCell id="9MFl-5R6tCMCHo1rS8Rg-5" style="edgeStyle=orthogonalEdgeStyle;rounded=0;orthogonalLoop=1;jettySize=auto;html=1;exitX=0.5;exitY=1;exitDx=0;exitDy=0;entryX=0.5;entryY=0;entryDx=0;entryDy=0;" parent="WIyWlLk6GJQsqaUBKTNV-1" source="9MFl-5R6tCMCHo1rS8Rg-1" target="M_cTl8z5Hkn0wJi17E9b-37" edge="1">
          <mxGeometry relative="1" as="geometry" />
        </mxCell>
        <mxCell id="9MFl-5R6tCMCHo1rS8Rg-7" value="是" style="edgeLabel;html=1;align=center;verticalAlign=middle;resizable=0;points=[];" parent="9MFl-5R6tCMCHo1rS8Rg-5" vertex="1" connectable="0">
          <mxGeometry x="-0.158" y="1" relative="1" as="geometry">
            <mxPoint as="offset" />
          </mxGeometry>
        </mxCell>
        <mxCell id="9MFl-5R6tCMCHo1rS8Rg-9" style="edgeStyle=orthogonalEdgeStyle;rounded=0;orthogonalLoop=1;jettySize=auto;html=1;exitX=1;exitY=0.5;exitDx=0;exitDy=0;entryX=0.5;entryY=0;entryDx=0;entryDy=0;" parent="WIyWlLk6GJQsqaUBKTNV-1" source="9MFl-5R6tCMCHo1rS8Rg-1" target="M_cTl8z5Hkn0wJi17E9b-206" edge="1">
          <mxGeometry relative="1" as="geometry" />
        </mxCell>
        <mxCell id="9MFl-5R6tCMCHo1rS8Rg-10" value="否" style="edgeLabel;html=1;align=center;verticalAlign=middle;resizable=0;points=[];" parent="9MFl-5R6tCMCHo1rS8Rg-9" vertex="1" connectable="0">
          <mxGeometry x="-0.8476" y="-3" relative="1" as="geometry">
            <mxPoint as="offset" />
          </mxGeometry>
        </mxCell>
        <mxCell id="9MFl-5R6tCMCHo1rS8Rg-1" value="图片验证码是否正确?" style="rhombus;whiteSpace=wrap;html=1;rounded=0;" parent="WIyWlLk6GJQsqaUBKTNV-1" vertex="1">
          <mxGeometry x="90" y="270" width="80" height="80" as="geometry" />
        </mxCell>
        <mxCell id="mRb_3jqGlFHB-wEnceeY-3" value="" style="edgeStyle=orthogonalEdgeStyle;rounded=0;orthogonalLoop=1;jettySize=auto;html=1;" parent="WIyWlLk6GJQsqaUBKTNV-1" source="mRb_3jqGlFHB-wEnceeY-0" target="mRb_3jqGlFHB-wEnceeY-2" edge="1">
          <mxGeometry relative="1" as="geometry" />
        </mxCell>
        <mxCell id="mRb_3jqGlFHB-wEnceeY-8" value="是" style="edgeLabel;html=1;align=center;verticalAlign=middle;resizable=0;points=[];" parent="mRb_3jqGlFHB-wEnceeY-3" vertex="1" connectable="0">
          <mxGeometry x="-0.1206" y="-1" relative="1" as="geometry">
            <mxPoint as="offset" />
          </mxGeometry>
        </mxCell>
        <mxCell id="mRb_3jqGlFHB-wEnceeY-11" value="" style="edgeStyle=orthogonalEdgeStyle;rounded=0;orthogonalLoop=1;jettySize=auto;html=1;" parent="WIyWlLk6GJQsqaUBKTNV-1" source="mRb_3jqGlFHB-wEnceeY-0" target="mRb_3jqGlFHB-wEnceeY-10" edge="1">
          <mxGeometry relative="1" as="geometry" />
        </mxCell>
        <mxCell id="mRb_3jqGlFHB-wEnceeY-12" value="否" style="edgeLabel;html=1;align=center;verticalAlign=middle;resizable=0;points=[];" parent="mRb_3jqGlFHB-wEnceeY-11" vertex="1" connectable="0">
          <mxGeometry x="-0.2333" relative="1" as="geometry">
            <mxPoint as="offset" />
          </mxGeometry>
        </mxCell>
        <mxCell id="mRb_3jqGlFHB-wEnceeY-0" value="手机号是否填写正确?" style="rhombus;whiteSpace=wrap;html=1;rounded=0;" parent="WIyWlLk6GJQsqaUBKTNV-1" vertex="1">
          <mxGeometry x="360" y="1299" width="80" height="80" as="geometry" />
        </mxCell>
        <mxCell id="mRb_3jqGlFHB-wEnceeY-5" value="" style="edgeStyle=orthogonalEdgeStyle;rounded=0;orthogonalLoop=1;jettySize=auto;html=1;" parent="WIyWlLk6GJQsqaUBKTNV-1" source="mRb_3jqGlFHB-wEnceeY-2" target="mRb_3jqGlFHB-wEnceeY-4" edge="1">
          <mxGeometry relative="1" as="geometry" />
        </mxCell>
        <mxCell id="mRb_3jqGlFHB-wEnceeY-2" value="生成图形验证码" style="whiteSpace=wrap;html=1;rounded=0;" parent="WIyWlLk6GJQsqaUBKTNV-1" vertex="1">
          <mxGeometry x="340" y="1469" width="120" height="60" as="geometry" />
        </mxCell>
        <mxCell id="mRb_3jqGlFHB-wEnceeY-7" value="" style="edgeStyle=orthogonalEdgeStyle;rounded=0;orthogonalLoop=1;jettySize=auto;html=1;" parent="WIyWlLk6GJQsqaUBKTNV-1" source="mRb_3jqGlFHB-wEnceeY-4" target="mRb_3jqGlFHB-wEnceeY-6" edge="1">
          <mxGeometry relative="1" as="geometry" />
        </mxCell>
        <mxCell id="mRb_3jqGlFHB-wEnceeY-9" value="是" style="edgeLabel;html=1;align=center;verticalAlign=middle;resizable=0;points=[];" parent="mRb_3jqGlFHB-wEnceeY-7" vertex="1" connectable="0">
          <mxGeometry x="-0.0095" relative="1" as="geometry">
            <mxPoint as="offset" />
          </mxGeometry>
        </mxCell>
        <mxCell id="mRb_3jqGlFHB-wEnceeY-14" value="" style="edgeStyle=orthogonalEdgeStyle;rounded=0;orthogonalLoop=1;jettySize=auto;html=1;" parent="WIyWlLk6GJQsqaUBKTNV-1" source="mRb_3jqGlFHB-wEnceeY-4" target="mRb_3jqGlFHB-wEnceeY-13" edge="1">
          <mxGeometry relative="1" as="geometry" />
        </mxCell>
        <mxCell id="mRb_3jqGlFHB-wEnceeY-4" value="图形验证码验证是否正确?" style="rhombus;whiteSpace=wrap;html=1;rounded=0;" parent="WIyWlLk6GJQsqaUBKTNV-1" vertex="1">
          <mxGeometry x="360" y="1599" width="80" height="80" as="geometry" />
        </mxCell>
        <mxCell id="mRb_3jqGlFHB-wEnceeY-6" value="发送短信验证码" style="whiteSpace=wrap;html=1;rounded=1;fillColor=#d5e8d4;strokeColor=#82b366;" parent="WIyWlLk6GJQsqaUBKTNV-1" vertex="1">
          <mxGeometry x="340" y="1769" width="120" height="60" as="geometry" />
        </mxCell>
        <mxCell id="mRb_3jqGlFHB-wEnceeY-10" value="获取失败" style="whiteSpace=wrap;html=1;rounded=1;fillColor=#f8cecc;strokeColor=#b85450;" parent="WIyWlLk6GJQsqaUBKTNV-1" vertex="1">
          <mxGeometry x="500" y="1309" width="120" height="60" as="geometry" />
        </mxCell>
        <mxCell id="mRb_3jqGlFHB-wEnceeY-13" value="获取失败" style="whiteSpace=wrap;html=1;rounded=1;fillColor=#f8cecc;strokeColor=#b85450;" parent="WIyWlLk6GJQsqaUBKTNV-1" vertex="1">
          <mxGeometry x="500" y="1609" width="120" height="60" as="geometry" />
        </mxCell>
      </root>
    </mxGraphModel>
  </diagram>
</mxfile>
